<?xml version="1.0" standalone="no"?>
<!DOCTYPE svg PUBLIC "-//W3C//DTD SVG 20010904//EN"
 "http://www.w3.org/TR/2001/REC-SVG-20010904/DTD/svg10.dtd">
<svg version="1.0" xmlns="http://www.w3.org/2000/svg"
 width="512pt" height="512pt" viewBox="0 0 512 512"
 preserveAspectRatio="xMidYMid meet">
<g transform="translate(0,512) scale(0.1,-0.1)"
fill="#000000" stroke="none">
<path d="M2565 4690 c-274 -43 -580 -324 -727 -670 -80 -185 -112 -357 -105
-554 4 -132 7 -148 43 -251 68 -190 168 -331 316 -442 165 -124 349 -189 563
-199 112 -6 142 -3 220 15 103 25 282 108 365 170 95 71 208 189 236 247 94
192 -122 378 -293 251 -16 -12 -56 -52 -89 -89 -106 -120 -215 -178 -370 -196
-92 -11 -168 -2 -246 29 -303 118 -416 395 -312 763 74 259 297 508 483 537
122 18 231 -25 359 -145 97 -91 122 -102 203 -91 98 14 174 101 173 200 -1 68
-23 106 -112 197 -127 131 -256 202 -413 227 -72 12 -219 12 -294 1z"/>
<path d="M4133 2739 c-18 -11 -43 -37 -55 -57 -21 -35 -23 -53 -31 -292 -5
-140 -10 -256 -11 -256 0 -1 -35 7 -76 18 -95 26 -365 31 -445 9 -115 -32
-235 -107 -304 -190 -125 -149 -193 -375 -193 -640 1 -248 64 -436 193 -570
108 -111 212 -153 380 -153 126 0 224 24 340 82 l78 39 11 -34 c34 -104 161
-137 244 -65 18 17 38 42 44 57 7 18 19 340 32 883 26 1094 26 1071 -2 1114
-49 75 -137 99 -205 55z m-263 -885 c30 -9 79 -25 108 -36 l52 -19 0 -193 c0
-106 -3 -262 -7 -346 -6 -151 -7 -153 -37 -193 -38 -49 -123 -109 -194 -136
-78 -30 -207 -46 -258 -32 -138 38 -223 233 -210 481 16 284 117 445 311 494
35 9 179 -3 235 -20z"/>
<path d="M1179 2206 c-89 -31 -167 -84 -271 -185 l-88 -84 0 80 c0 77 -1 81
-36 121 -73 85 -183 75 -243 -22 -21 -34 -21 -39 -19 -728 3 -675 4 -694 23
-720 27 -36 86 -68 125 -68 47 0 98 28 126 69 l24 36 1 345 c0 190 4 371 8
402 6 47 18 73 66 145 79 118 242 280 317 316 108 51 183 30 224 -65 17 -40
19 -86 24 -589 l5 -545 27 -41 c46 -70 124 -91 197 -54 78 40 75 23 81 506 l6
430 25 60 c56 131 148 233 263 290 92 47 151 48 200 5 70 -62 70 -62 76 -667
5 -527 6 -542 26 -569 38 -51 71 -69 128 -69 43 0 60 6 90 29 69 52 68 38 64
630 -4 509 -5 534 -26 610 -44 157 -118 259 -224 309 -202 94 -425 45 -623
-135 -35 -32 -65 -58 -68 -58 -3 0 -16 19 -30 43 -98 164 -312 239 -498 173z"/>
</g>
</svg>
