<?xml version="1.0" standalone="no"?>
<!DOCTYPE svg PUBLIC "-//W3C//DTD SVG 20010904//EN"
 "http://www.w3.org/TR/2001/REC-SVG-20010904/DTD/svg10.dtd">
<svg version="1.0" xmlns="http://www.w3.org/2000/svg"
 width="512pt" height="512pt" viewBox="0 0 512 512"
 preserveAspectRatio="xMidYMid meet">
<g transform="translate(0,512) scale(0.1,-0.1)"
fill="#000000" stroke="none">
<path d="M2535 4620 c-274 -43 -580 -324 -727 -670 -80 -185 -112 -357 -105
-554 4 -132 7 -148 43 -251 68 -190 168 -331 316 -442 165 -124 349 -189 563
-199 112 -6 142 -3 220 15 103 25 282 108 365 170 95 71 208 189 236 247 94
192 -122 378 -293 251 -16 -12 -56 -52 -89 -89 -106 -120 -215 -178 -370 -196
-92 -11 -168 -2 -246 29 -303 118 -416 395 -312 763 74 259 297 508 483 537
122 18 231 -25 359 -145 97 -91 122 -102 203 -91 98 14 174 101 173 200 -1 68
-23 106 -112 197 -127 131 -256 202 -413 227 -72 12 -219 12 -294 1z"/>
<path d="M4271 2663 c-18 -9 -45 -34 -59 -56 -25 -38 -26 -43 -35 -295 -5
-142 -10 -258 -11 -259 -1 -1 -37 8 -81 19 -112 28 -307 35 -405 14 -164 -34
-316 -141 -400 -281 -80 -135 -131 -342 -132 -543 -1 -252 69 -454 203 -589
61 -62 112 -93 199 -124 88 -30 243 -30 350 0 58 16 176 67 230 98 3 2 15 -19
28 -46 41 -91 148 -117 228 -56 20 15 42 42 49 59 11 25 19 259 36 990 l23
957 -22 43 c-41 76 -127 105 -201 69z m-266 -889 c33 -9 82 -25 109 -37 l49
-21 -6 -337 c-6 -374 -5 -368 -75 -431 -82 -74 -194 -121 -318 -133 -85 -9
-130 3 -181 48 -49 43 -78 92 -105 178 -19 63 -23 95 -22 219 0 120 4 159 23
227 46 164 132 262 261 300 55 16 181 10 265 -13z"/>
<path d="M1335 2136 c-105 -33 -184 -86 -307 -205 l-78 -74 0 72 c0 84 -14
118 -66 157 -48 37 -108 37 -162 2 -75 -50 -72 -15 -72 -773 l0 -677 22 -39
c24 -43 85 -79 132 -79 43 0 95 29 122 69 l24 36 1 350 c0 192 4 374 8 403 6
40 21 72 66 140 76 113 242 279 314 315 106 52 186 30 227 -65 17 -40 19 -86
24 -588 l5 -545 23 -37 c24 -39 91 -78 134 -78 41 0 109 42 129 80 18 32 19
64 19 430 0 425 3 458 54 558 37 73 102 148 170 196 77 56 127 76 183 76 67 0
101 -23 131 -88 l27 -57 5 -546 5 -546 27 -35 c55 -72 144 -86 212 -34 69 52
68 37 63 624 -4 586 -6 606 -72 737 -39 77 -61 105 -120 150 -185 142 -460
102 -682 -99 -33 -31 -63 -56 -65 -56 -3 0 -19 22 -36 49 -80 123 -210 191
-362 190 -36 0 -83 -6 -105 -13z"/>
</g>
</svg>
